<mxfile host="65bd71144e">
    <diagram id="TL1h2kCDA-LrpAjJG8oC" name="Page-1">
        <mxGraphModel dx="1023" dy="779" grid="1" gridSize="10" guides="1" tooltips="1" connect="1" arrows="1" fold="1" page="1" pageScale="1" pageWidth="850" pageHeight="1100" math="0" shadow="0">
            <root>
                <mxCell id="0"/>
                <mxCell id="1" parent="0"/>
                <mxCell id="2" value="&lt;font face=&quot;Verdana&quot; color=&quot;#000000&quot;&gt;USUARIO&lt;br&gt;&lt;/font&gt;" style="whiteSpace=wrap;html=1;fillColor=#f9f7ed;strokeColor=#36393d;fontFamily=Lucida Console;labelBackgroundColor=none;labelBorderColor=none;" vertex="1" parent="1">
                    <mxGeometry x="30" y="40" width="190" height="40" as="geometry"/>
                </mxCell>
                <mxCell id="12" style="edgeStyle=none;html=1;fontColor=#000000;" edge="1" parent="1" source="5">
                    <mxGeometry relative="1" as="geometry">
                        <mxPoint x="125" y="360" as="targetPoint"/>
                    </mxGeometry>
                </mxCell>
                <mxCell id="5" value="&lt;font face=&quot;Verdana&quot; color=&quot;#000000&quot;&gt;NOME&lt;br&gt;EMAIL&lt;br&gt;DATA_NASCIMENTO&lt;br&gt;TELEFONE&lt;br&gt;ENDERECO&lt;br&gt;PLANO_SAUDE&lt;br&gt;TIPO&lt;br&gt;PASSWORD&lt;br&gt;RG_USUARIO&lt;br&gt;CRM_MEDICO&lt;br&gt;ESPECIALIDADE&lt;br&gt;&lt;/font&gt;" style="whiteSpace=wrap;html=1;fillColor=#f9f7ed;strokeColor=#36393d;fontFamily=Lucida Console;labelBackgroundColor=none;labelBorderColor=none;" vertex="1" parent="1">
                    <mxGeometry x="30" y="100" width="190" height="200" as="geometry"/>
                </mxCell>
                <mxCell id="6" value="&lt;font face=&quot;Verdana&quot; color=&quot;#000000&quot;&gt;CONSULTA&lt;br&gt;&lt;/font&gt;" style="whiteSpace=wrap;html=1;fillColor=#f9f7ed;strokeColor=#36393d;fontFamily=Lucida Console;labelBackgroundColor=none;labelBorderColor=none;" vertex="1" parent="1">
                    <mxGeometry x="260" y="40" width="190" height="40" as="geometry"/>
                </mxCell>
                <mxCell id="7" value="&lt;font face=&quot;Verdana&quot; color=&quot;#000000&quot;&gt;AGENDAMENTO&lt;br&gt;&lt;/font&gt;" style="whiteSpace=wrap;html=1;fillColor=#f9f7ed;strokeColor=#36393d;fontFamily=Lucida Console;labelBackgroundColor=none;labelBorderColor=none;" vertex="1" parent="1">
                    <mxGeometry x="480" y="40" width="190" height="40" as="geometry"/>
                </mxCell>
                <mxCell id="10" style="edgeStyle=none;html=1;fontColor=#000000;" edge="1" parent="1" source="8">
                    <mxGeometry relative="1" as="geometry">
                        <mxPoint x="575" y="360" as="targetPoint"/>
                    </mxGeometry>
                </mxCell>
                <mxCell id="8" value="&lt;font face=&quot;Verdana&quot; color=&quot;#000000&quot;&gt;TURNO&lt;br&gt;NOME_MEDICO&lt;br&gt;HORARIOS&lt;br&gt;ENDERECO-CONSULTORIO&lt;br&gt;PRECO&lt;br&gt;MODALIDADE&lt;br&gt;ESPECIALIDADE(JÁ VEM)&lt;br&gt;CRM(VALIDO)&lt;br&gt;&lt;/font&gt;" style="whiteSpace=wrap;html=1;fillColor=#f9f7ed;strokeColor=#36393d;fontFamily=Lucida Console;labelBackgroundColor=none;labelBorderColor=none;" vertex="1" parent="1">
                    <mxGeometry x="480" y="100" width="190" height="200" as="geometry"/>
                </mxCell>
                <mxCell id="11" style="edgeStyle=none;html=1;fontColor=#000000;" edge="1" parent="1" source="9">
                    <mxGeometry relative="1" as="geometry">
                        <mxPoint x="355" y="360" as="targetPoint"/>
                    </mxGeometry>
                </mxCell>
                <mxCell id="9" value="&lt;font face=&quot;Verdana&quot; color=&quot;#000000&quot;&gt;ID_MEDICO&lt;br&gt;ID_AGENDAMENTO&lt;br&gt;ID_USUARIO&lt;br&gt;DATA&lt;br&gt;STATUS&lt;br&gt;OBSERVACOES&lt;br&gt;&lt;/font&gt;" style="whiteSpace=wrap;html=1;fillColor=#f9f7ed;strokeColor=#36393d;fontFamily=Lucida Console;labelBackgroundColor=none;labelBorderColor=none;" vertex="1" parent="1">
                    <mxGeometry x="260" y="100" width="190" height="200" as="geometry"/>
                </mxCell>
                <mxCell id="13" value="&lt;font face=&quot;Verdana&quot; color=&quot;#000000&quot;&gt;CREATE()&lt;br&gt;&lt;/font&gt;" style="whiteSpace=wrap;html=1;fillColor=#f9f7ed;strokeColor=#36393d;fontFamily=Lucida Console;labelBackgroundColor=none;labelBorderColor=none;" vertex="1" parent="1">
                    <mxGeometry x="30" y="360" width="190" height="40" as="geometry"/>
                </mxCell>
                <mxCell id="14" value="&lt;font face=&quot;Verdana&quot; color=&quot;#000000&quot;&gt;CREATE()&lt;br&gt;UPDATE()&lt;br&gt;DELETE()&lt;br&gt;LISTAR POR USUARIO()&lt;br&gt;&lt;/font&gt;&lt;span style=&quot;color: rgb(0, 0, 0); font-family: Verdana;&quot;&gt;LISTAR POR MEDICO()&lt;br&gt;&lt;/span&gt;&lt;span style=&quot;color: rgb(0, 0, 0); font-family: Verdana;&quot;&gt;LISTAR POR PLANO_SAUDE()&lt;/span&gt;&lt;font face=&quot;Verdana&quot; color=&quot;#000000&quot;&gt;&lt;br&gt;&lt;/font&gt;" style="whiteSpace=wrap;html=1;fillColor=#f9f7ed;strokeColor=#36393d;fontFamily=Lucida Console;labelBackgroundColor=none;labelBorderColor=none;" vertex="1" parent="1">
                    <mxGeometry x="260" y="360" width="190" height="120" as="geometry"/>
                </mxCell>
                <mxCell id="15" value="&lt;font face=&quot;Verdana&quot; color=&quot;#000000&quot;&gt;REAGENDAMENTO()&lt;br&gt;DELETE()&lt;br&gt;CREATE()&lt;br&gt;UPDATE()&lt;br&gt;&lt;/font&gt;" style="whiteSpace=wrap;html=1;fillColor=#f9f7ed;strokeColor=#36393d;fontFamily=Lucida Console;labelBackgroundColor=none;labelBorderColor=none;" vertex="1" parent="1">
                    <mxGeometry x="480" y="360" width="190" height="120" as="geometry"/>
                </mxCell>
            </root>
        </mxGraphModel>
    </diagram>
</mxfile>